Piranha 3D is a 2010 3D comedy horror film, and the second remake of the 1978 film of the same name. It is directed by Alexandre Aja and sports an ensemble cast featuring Steven R. McQueen, Jessica Szohr, Jerry O'Connell, Richard Dreyfuss, Christopher Lloyd, Elisabeth Shue, Adam Scott, Kelly Brook, Riley Steele, Ving Rhames and Eli Roth.


Video

ID : 1
Format : AVC
Format/Info : Advanced Video Codec
Format profile : Baseline@L3.1
Format settings, CABAC : No
Format settings, ReFrames : 1 frame
Codec ID : avc1
Codec ID/Info : Advanced Video Coding
Duration : 1h 20mn
Bit rate mode : Variable
Bit rate : 2 419 Kbps
Width : 1 024 pixels
Height : 576 pixels
Display aspect ratio : 16:9
Frame rate mode : Constant
Frame rate : 25.000 fps
Color space : YUV
Chroma subsampling : 4:2:0
Bit depth : 8 bits
Scan type : Progressive
Bits/(Pixel*Frame) : 0.164
Stream size : 1.37 GiB (92%)


Audio

ID : 2
Format : AAC
Format/Info : Advanced Audio Codec
Format profile : LC
Codec ID : 40
Duration : 1h 20mn
Bit rate mode : Variable
Bit rate : 192 Kbps
Channel(s) : 6 channels
Channel positions : Front: L C R, Side: L R, LFE
Sampling rate : 48.0 KHz
Compression mode : Lossy
Stream size : 111 MiB (7%)